# xmcd CD database file
#
# Track frame offsets:
#	150
#	20452
#	45374
#	63948
#	80597
#	101090
#	121281
#	142262
#	161301
#	177364
#	198544
#
# Disc length: 2901 seconds
#
# Revision: 0
# Processed by: cddbd v1.5.2PL0 Copyright (c) Steve Scherf et al.
# Submitted via: CDex 1.70beta3
#
DISCID=920b530b
DTITLE=姫神 - 天∴日高見乃國
DYEAR=2008
DGENRE=New Age
TTITLE0=日高見の暁
TTITLE1=天の空 （日高見微）
TTITLE2=深山ノ夕霧
TTITLE3=日高見山嶺
TTITLE4=悠久ノ華 【毛越寺　花供養法要　平泉世界遺産登録祈念　奉納曲】
TTITLE5=壮麗詩 （大地の祈り）
TTITLE6=天∴日高まつり 【伊勢　神嘗奉祝祭　公式ソング】
TTITLE7=真白幾笛
TTITLE8=天の空 （白神山地）
TTITLE9=風日ノ御路
TTITLE10=常葉の杜 （明日への夕暮れ）
EXTD=YEAR: 2008
EXTT0=
EXTT1=
EXTT2=
EXTT3=
EXTT4=
EXTT5=
EXTT6=
EXTT7=
EXTT8=
EXTT9=
EXTT10=
PLAYORDER=
